HIERARCHY
ROOT joint_Root
{
	OFFSET 0.0 0.0 0.0
	CHANNELS 6 Xposition Yposition Zposition Zrotation Xrotation Yrotation 
	JOINT Hips
	{
		OFFSET -17.1583 93.1646 452.98
		CHANNELS 6 Xposition Yposition Zposition Zrotation Xrotation Yrotation 
		JOINT Spine
		{
			OFFSET 15.7357 0.0 0.0
			CHANNELS 6 Xposition Yposition Zposition Zrotation Xrotation Yrotation 
			JOINT Chest
			{
				OFFSET 8.98455 -0.406207 0.0
				CHANNELS 6 Xposition Yposition Zposition Zrotation Xrotation Yrotation 
				JOINT Neck
				{
					OFFSET 16.3773 0.0 0.0
					CHANNELS 6 Xposition Yposition Zposition Zrotation Xrotation Yrotation 
					JOINT Head
					{
						OFFSET 6.45672 0.0 0.0
						CHANNELS 6 Xposition Yposition Zposition Zrotation Xrotation Yrotation 
						End Site
						{
							OFFSET 0.0 0.0 0.0
						}
					}
				}
				JOINT Shoulder_L
				{
					OFFSET 12.9942 -0.242716 4.98039
					CHANNELS 6 Xposition Yposition Zposition Zrotation Xrotation Yrotation 
					JOINT UpperArm_L
					{
						OFFSET 5.34809 0.0 0.0
						CHANNELS 6 Xposition Yposition Zposition Zrotation Xrotation Yrotation 
						JOINT LowerArm_L
						{
							OFFSET 24.3286 1.87007e-05 0.0
							CHANNELS 6 Xposition Yposition Zposition Zrotation Xrotation Yrotation 
							JOINT Hand_L
							{
								OFFSET 22.2916 0.0 0.0
								CHANNELS 6 Xposition Yposition Zposition Zrotation Xrotation Yrotation 
								End Site
								{
									OFFSET 0.0 0.0 0.0
								}
							}
						}
					}
				}
				JOINT Shoulder_R
				{
					OFFSET 12.9945 -0.242716 -4.98039
					CHANNELS 6 Xposition Yposition Zposition Zrotation Xrotation Yrotation 
					JOINT UpperArm_R
					{
						OFFSET -5.34813 0.0 0.0
						CHANNELS 6 Xposition Yposition Zposition Zrotation Xrotation Yrotation 
						JOINT LowerArm_R
						{
							OFFSET -24.3289 0.000322201 0.0
							CHANNELS 6 Xposition Yposition Zposition Zrotation Xrotation Yrotation 
							JOINT Hand_R
							{
								OFFSET -22.2915 -0.000108084 0.0
								CHANNELS 6 Xposition Yposition Zposition Zrotation Xrotation Yrotation 
								End Site
								{
									OFFSET 0.0 0.0 0.0
								}
							}
						}
					}
				}
			}
		}
		JOINT UpperLeg_L
		{
			OFFSET -2.19248 -6.46944 0.0
			CHANNELS 6 Xposition Yposition Zposition Zrotation Xrotation Yrotation 
			JOINT LowerLeg_L
			{
				OFFSET 39.0811 0.0 -1.23785e-05
				CHANNELS 6 Xposition Yposition Zposition Zrotation Xrotation Yrotation 
				JOINT Foot_L
				{
					OFFSET 40.9854 0.0 -1.26872e-05
					CHANNELS 6 Xposition Yposition Zposition Zrotation Xrotation Yrotation 
					JOINT Toes_L
					{
						OFFSET 11.7543 0.0 0.0
						CHANNELS 6 Xposition Yposition Zposition Zrotation Xrotation Yrotation 
						End Site
						{
							OFFSET 0.0 0.0 0.0
						}
					}
				}
			}
		}
		JOINT UpperLeg_R
		{
			OFFSET -2.19251 6.46944 0.0
			CHANNELS 6 Xposition Yposition Zposition Zrotation Xrotation Yrotation 
			JOINT LowerLeg_R
			{
				OFFSET -39.0811 -0.00228153 -0.0401928
				CHANNELS 6 Xposition Yposition Zposition Zrotation Xrotation Yrotation 
				JOINT Foot_R
				{
					OFFSET -40.9854 0.0 0.0
					CHANNELS 6 Xposition Yposition Zposition Zrotation Xrotation Yrotation 
					JOINT Toes_R
					{
						OFFSET -11.7543 0.0 0.0
						CHANNELS 6 Xposition Yposition Zposition Zrotation Xrotation Yrotation 
						End Site
						{
							OFFSET 0.0 0.0 0.0
						}
					}
				}
			}
		}
	}
}
MOTION
Frames:	8
Frame Time:	0.0333333
0.000000 0.000000 0.000000 0.000000 0.000000 -0.000000 -1.568230 93.403200 -3.938830 87.573000 -1.585330 0.789632 15.735700 0.000005 -0.000001 101.790000 86.778800 -100.809000 8.984550 -0.406207 -0.000000 -1.469370 1.237060 1.977720 16.377300 -0.000001 -0.000001 -5.515610 1.372830 -1.341400 6.456720 -0.000001 -0.000000 -0.419157 0.422271 1.549340 12.994200 -0.242716 4.980390 -92.256100 7.549740 -73.308900 5.348090 -0.000007 -0.000001 -71.896800 20.652100 -6.070050 24.328600 0.000019 0.000005 7.565330 28.169300 -15.714000 22.291600 -0.000001 0.000005 -10.647900 5.096950 5.171590 12.994500 -0.242716 -4.980390 88.931800 4.393050 -76.319000 -5.348130 -0.000001 -0.000004 -68.946800 34.660800 -8.848810 -24.328900 0.000322 -0.000009 1.601020 7.715410 -11.768400 -22.291500 -0.000108 -0.000004 -13.330600 5.178300 3.258870 -2.192480 -6.469440 -0.000000 -172.975000 -7.185630 -3.585180 39.081100 -0.000007 -0.000012 0.001523 -0.005266 16.139100 40.985400 -0.000006 -0.000013 -1.578990 11.500600 -67.458500 11.754300 -0.000000 0.000003 -0.000371 0.173657 -9.533050 -2.192510 6.469440 -0.000001 178.718000 4.968580 177.863000 -39.081100 -0.002282 -0.040193 0.033440 -0.138504 12.262900 -40.985400 0.000008 0.000006 -3.661160 6.365700 -66.124200 -11.754300 -0.000006 -0.000006 -0.008629 0.260762 -5.981990
0.000000 0.000000 0.000000 0.000000 0.000000 -0.000000 -1.563770 93.439700 -3.910760 87.569200 -1.545910 0.307240 15.735700 0.000005 -0.000001 101.562000 86.721100 -100.630000 8.984550 -0.406207 -0.000000 -1.350700 1.240000 1.876640 16.377300 -0.000001 -0.000001 -7.077830 1.272140 -1.142400 6.456720 -0.000001 -0.000000 -1.562590 0.453314 1.542850 12.994200 -0.242716 4.980390 -92.110300 7.235320 -73.691700 5.348090 -0.000007 -0.000001 -69.794200 18.778200 -10.210600 24.328600 0.000019 0.000005 6.652370 31.222000 -12.682500 22.291600 -0.000001 0.000005 -16.446300 5.139590 4.169700 12.994500 -0.242716 -4.980390 89.090800 3.823720 -76.614200 -5.348130 -0.000001 -0.000004 -66.816900 34.055800 -12.415800 -24.328900 0.000322 -0.000009 1.748500 8.881120 -11.191800 -22.291500 -0.000108 -0.000004 -15.972000 5.169990 3.465320 -2.192480 -6.469440 -0.000000 -173.026000 -7.280050 -3.889840 39.081100 -0.000007 -0.000012 0.001044 -0.003693 15.784800 40.985400 -0.000006 -0.000013 -1.598290 11.600900 -67.327500 11.754300 -0.000000 0.000003 -0.000353 0.173369 -9.544750 -2.192510 6.469440 -0.000001 178.711000 5.441060 177.602000 -39.081100 -0.002282 -0.040193 0.029115 -0.123178 11.820400 -40.985400 0.000008 0.000006 -3.891730 6.754870 -65.779000 -11.754300 -0.000006 -0.000006 -0.008382 0.258791 -6.062500
0.000000 0.000000 0.000000 0.000000 0.000000 -0.000000 -1.548340 93.490700 -3.841350 87.580100 -1.340360 -0.229232 15.735700 0.000005 -0.000001 101.572000 86.778400 -100.709000 8.984550 -0.406207 -0.000000 -1.462510 1.222720 1.742420 16.377300 -0.000001 -0.000001 -8.337930 1.066610 -0.937637 6.456720 -0.000001 -0.000000 -3.104950 0.373173 1.445570 12.994200 -0.242716 4.980390 -91.937200 6.777780 -74.007900 5.348090 -0.000007 -0.000001 -66.901000 15.390300 -15.311800 24.328600 0.000019 0.000005 5.669280 35.751500 -9.645960 22.291600 -0.000001 0.000005 -22.947100 5.196580 2.783410 12.994500 -0.242716 -4.980390 89.301600 2.933880 -76.604200 -5.348130 -0.000001 -0.000004 -64.054300 32.251100 -16.731100 -24.328900 0.000322 -0.000009 1.762870 9.332800 -10.752400 -22.291500 -0.000108 -0.000004 -18.965700 5.142610 4.126100 -2.192480 -6.469440 -0.000000 -173.113000 -7.418320 -4.161730 39.081100 -0.000007 -0.000012 0.000901 -0.003299 15.288300 40.985400 -0.000006 -0.000013 -1.602950 11.782300 -67.250000 11.754300 -0.000000 0.000003 -0.000586 0.176972 -9.398350 -2.192510 6.469440 -0.000001 178.638000 6.228690 177.442000 -39.081100 -0.002282 -0.040193 0.022303 -0.095933 11.183200 -40.985400 0.000008 0.000006 -4.398040 7.388630 -65.367400 -11.754300 -0.000006 -0.000006 -0.008573 0.260313 -6.000330
0.000000 0.000000 0.000000 0.000000 0.000000 -0.000000 -1.524930 93.510100 -3.682680 87.603300 -1.146820 -0.731648 15.735700 0.000005 -0.000001 102.207000 86.958800 -101.408000 8.984550 -0.406207 -0.000000 -1.829250 1.218900 1.616760 16.377300 -0.000001 -0.000001 -9.199290 0.779591 -0.741322 6.456720 -0.000001 -0.000000 -4.644000 0.319768 1.107100 12.994200 -0.242716 4.980390 -91.726000 6.119080 -74.214800 5.348090 -0.000007 -0.000001 -63.566800 10.102600 -20.997000 24.328600 0.000019 0.000005 4.655760 39.612500 -7.279880 22.291600 -0.000001 0.000005 -27.162200 5.216790 2.296110 12.994500 -0.242716 -4.980390 89.563200 1.790670 -76.285600 -5.348130 -0.000001 -0.000004 -60.607300 28.885400 -21.775500 -24.328900 0.000322 -0.000009 1.744950 9.380330 -10.593400 -22.291500 -0.000108 -0.000004 -21.830800 5.119500 4.665590 -2.192480 -6.469440 -0.000000 -173.198000 -7.551090 -4.454080 39.081100 -0.000007 -0.000012 -0.001451 0.005413 14.997400 40.985400 -0.000006 -0.000013 -1.575380 12.010800 -67.210300 11.754300 -0.000000 0.000003 -0.000854 0.180934 -9.237380 -2.192510 6.469440 -0.000001 178.613000 6.954700 177.259000 -39.081100 -0.002282 -0.040193 0.019740 -0.086171 10.776900 -40.985400 0.000008 0.000006 -4.431620 7.853950 -65.206000 -11.754300 -0.000006 -0.000006 -0.008680 0.261165 -5.965510
0.000000 0.000000 0.000000 0.000000 0.000000 -0.000000 -1.478730 93.494300 -3.273320 87.658700 -1.076980 -0.591040 15.735700 0.000005 -0.000001 102.562000 87.096300 -101.808000 8.984550 -0.406207 -0.000000 -2.105240 1.197780 1.529420 16.377300 -0.000001 -0.000001 -9.489020 0.575178 -0.652669 6.456720 -0.000001 -0.000000 -5.929730 0.373054 0.554638 12.994200 -0.242716 4.980390 -91.475300 5.240990 -74.254300 5.348090 -0.000007 -0.000001 -59.782100 3.972990 -26.790900 24.328600 0.000019 0.000005 4.365200 40.683300 -6.678880 22.291600 -0.000001 0.000005 -27.005900 5.180360 3.198800 12.994500 -0.242716 -4.980390 89.853000 0.576984 -75.699200 -5.348130 -0.000001 -0.000004 -56.432000 23.982100 -27.631500 -24.328900 0.000322 -0.000009 1.774600 9.625710 -10.503300 -22.291500 -0.000108 -0.000004 -23.294100 5.115410 4.758260 -2.192480 -6.469440 -0.000000 -173.231000 -7.659170 -3.965540 39.081100 -0.000007 -0.000012 -0.006001 0.022719 14.795100 40.985400 -0.000006 -0.000013 -1.517960 12.110300 -67.179400 11.754300 -0.000000 0.000003 -0.001588 0.191068 -8.825480 -2.192510 6.469440 -0.000001 178.444000 6.834670 177.727000 -39.081100 -0.002282 -0.040193 0.017410 -0.074468 10.701200 -40.985400 0.000008 0.000006 -4.748000 7.715860 -65.310200 -11.754300 -0.000006 -0.000006 -0.009245 0.265572 -5.785400
0.000000 0.000000 0.000000 0.000000 0.000000 -0.000000 -1.410350 93.434000 -2.635140 87.730000 -1.149290 -0.072551 15.735700 0.000005 -0.000001 102.348000 87.307400 -101.614000 8.984550 -0.406207 -0.000000 -2.512050 1.085470 1.491120 16.377300 -0.000001 -0.000001 -9.271320 0.565507 -0.665339 6.456720 -0.000001 -0.000000 -6.387020 0.568107 0.109072 12.994200 -0.242716 4.980390 -91.205600 4.230830 -74.079100 5.348090 -0.000007 -0.000001 -55.194400 -1.856700 -32.703500 24.328600 0.000019 0.000005 4.218220 38.952800 -6.691610 22.291600 -0.000001 0.000005 -22.242600 5.157380 3.748480 12.994500 -0.242716 -4.980390 90.170700 -0.646455 -75.219300 -5.348130 -0.000001 -0.000004 -51.859700 17.909400 -33.753800 -24.328900 0.000322 -0.000009 1.713330 9.169910 -10.637700 -22.291500 -0.000108 -0.000004 -21.637800 5.125190 4.531150 -2.192480 -6.469440 -0.000000 -173.231000 -7.673730 -3.006460 39.081100 -0.000007 -0.000012 -0.006799 0.025832 14.744100 40.985400 -0.000006 -0.000013 -1.423280 12.081400 -67.104700 11.754300 -0.000000 0.000003 -0.001665 0.192070 -8.784730 -2.192510 6.469440 -0.000001 178.233000 6.420140 178.576000 -39.081100 -0.002282 -0.040193 0.018117 -0.076753 10.899300 -40.985400 0.000008 0.000006 -4.737480 7.396550 -65.663800 -11.754300 -0.000006 -0.000006 -0.009953 0.270950 -5.565500
0.000000 0.000000 0.000000 0.000000 0.000000 -0.000000 -1.317790 93.346000 -1.738420 87.814500 -1.337270 0.827873 15.735700 0.000005 -0.000001 103.098000 87.588900 -102.367000 8.984550 -0.406207 -0.000000 -3.075640 1.023140 1.490270 16.377300 -0.000001 -0.000001 -8.538600 0.671787 -0.648788 6.456720 -0.000001 -0.000000 -6.045470 0.798951 -0.289349 12.994200 -0.242716 4.980390 -90.862100 2.930700 -73.598000 5.348090 -0.000007 -0.000001 -50.365800 -7.181180 -38.590500 24.328600 0.000019 0.000005 4.080860 35.189200 -7.058150 22.291600 -0.000001 0.000005 -14.845200 5.124280 4.525120 12.994500 -0.242716 -4.980390 90.534300 -1.942490 -74.619500 -5.348130 -0.000001 -0.000004 -47.855900 10.480400 -39.738400 -24.328900 0.000322 -0.000009 1.563530 8.285620 -10.732100 -22.291500 -0.000108 -0.000004 -18.331900 5.155770 3.816070 -2.192480 -6.469440 -0.000000 -173.196000 -7.866710 -1.440440 39.081100 -0.000007 -0.000012 -0.002091 0.007950 14.735800 40.985400 -0.000006 -0.000013 -1.266340 12.116500 -67.415800 11.754300 -0.000000 0.000003 -0.002591 0.203516 -8.319180 -2.192510 6.469440 -0.000001 177.832000 6.455320 179.945000 -39.081100 -0.002282 -0.040193 0.016006 -0.064079 11.184200 -40.985400 0.000008 0.000006 -5.109500 7.744670 -66.024100 -11.754300 -0.000006 -0.000006 -0.010227 0.272995 -5.481880
0.000000 0.000000 0.000000 0.000000 0.000000 -0.000000 -1.191350 93.222500 -0.633416 87.959500 -1.402110 1.679950 15.735700 0.000005 -0.000001 106.325000 88.003400 -105.626000 8.984550 -0.406207 -0.000000 -3.940200 1.050360 1.434420 16.377300 -0.000001 -0.000001 -7.472110 0.751381 -0.685618 6.456720 -0.000001 -0.000000 -5.269060 0.879023 -0.472956 12.994200 -0.242716 4.980390 -90.479700 1.554320 -72.841800 5.348090 -0.000007 -0.000001 -46.352600 -13.053800 -44.990200 24.328600 0.000019 0.000005 3.996200 31.957600 -7.519070 22.291600 -0.000001 0.000005 -8.395000 5.078130 5.601840 12.994500 -0.242716 -4.980390 90.941700 -3.234320 -73.759100 -5.348130 -0.000001 -0.000004 -44.723200 2.167520 -45.708700 -24.328900 0.000322 -0.000009 1.134560 6.311030 -10.219600 -22.291500 -0.000108 -0.000004 -14.515500 5.180100 3.216860 -2.192480 -6.469440 -0.000000 -173.242000 -7.792280 0.206338 39.081100 -0.000007 -0.000012 0.004903 -0.018665 14.718700 40.985400 -0.000006 -0.000013 -1.096260 12.030900 -67.861500 11.754300 -0.000000 0.000003 -0.003102 0.209383 -8.080440 -2.192510 6.469440 -0.000001 177.327000 6.576710 -178.661000 -39.081100 -0.002282 -0.040193 0.014086 -0.052275 11.620700 -40.985400 0.000008 0.000006 -5.479700 8.081240 -66.638600 -11.754300 -0.000006 -0.000006 -0.011544 0.282500 -5.092850
